# xmcd
#
# Track frame offsets: 
#        150
#        15837
#        30490
#        49027
#        66160
#        85270
#        111162
#        126910
#        147007
#        166732
#        176942
#        204947
#
# Disc length: 2842 seconds
#
# Revision: 0
# Processed by: cddbd v1.5.2PL0 Copyright (c) Steve Scherf et al.
# Submitted via: ExactAudioCopyFreeDBPlugin 1.0
#
DISCID=960b180c
DTITLE=Ferryboat Bill - Luke The Drifter
DYEAR=1989
DGENRE=Country
TTITLE0=Every Man´s Dew
TTITLE1=The Big Boiler
TTITLE2=The Lab
TTITLE3=Small Dots In The Distance
TTITLE4=Beggars Yell
TTITLE5=A Way Of Amusement
TTITLE6=Bony
TTITLE7=Luke The Drifter
TTITLE8=Sidewalk
TTITLE9=Parent Ship
TTITLE10=Leslie
TTITLE11=Bad Education
EXTD=
EXTT0=
EXTT1=
EXTT2=
EXTT3=
EXTT4=
EXTT5=
EXTT6=
EXTT7=
EXTT8=
EXTT9=
EXTT10=
EXTT11=
PLAYORDER=
